<svg width="128" height="128" viewBox="0 0 128 128" fill="none" xmlns="http://www.w3.org/2000/svg">
  <defs>
    <linearGradient id="paint0_linear" x1="0" y1="0" x2="128" y2="128" gradientUnits="userSpaceOnUse">
      <stop stop-color="#1E3A8A"/>
      <stop offset="1" stop-color="#3B82F6"/>
    </linearGradient>
    <linearGradient id="paint1_linear" x1="45" y1="65" x2="85" y2="45" gradientUnits="userSpaceOnUse">
      <stop stop-color="#FDE047"/>
      <stop offset="1" stop-color="#EAB308"/>
    </linearGradient>
    <filter id="shadow" x="0" y="0" width="128" height="128" filterUnits="userSpaceOnUse" color-interpolation-filters="sRGB">
      <feFlood flood-opacity="0" result="BackgroundImageFix"/>
      <feColorMatrix in="SourceAlpha" type="matrix" values="0 0 0 0 0 0 0 0 0 0 0 0 0 0 0 0 0 0 127 0" result="hardAlpha"/>
      <feOffset dy="4"/>
      <feGaussianBlur stdDeviation="4"/>
      <feComposite in2="hardAlpha" operator="out"/>
      <feColorMatrix type="matrix" values="0 0 0 0 0 0 0 0 0 0 0 0 0 0 0 0 0 0 0.25 0"/>
      <feBlend mode="normal" in2="BackgroundImageFix" result="effect1_dropShadow"/>
      <feBlend mode="normal" in="SourceGraphic" in2="effect1_dropShadow" result="shape"/>
    </filter>
  </defs>
  <path d="M64 120C98.4444 105.333 118 73.3333 118 40V12L64 2L10 12V40C10 73.3333 29.5556 105.333 64 120Z" fill="url(#paint0_linear)"/>
  <path d="M64 10C94 20 110 45 110 70C110 95 94 110 64 120C34 110 18 95 18 70C18 45 34 20 64 10Z" fill="white" fill-opacity="0.05"/>
  <path d="M45 68L58 81L88 51" stroke="url(#paint1_linear)" stroke-width="12" stroke-linecap="round" stroke-linejoin="round"/>
  <circle cx="64" cy="64" r="50" stroke="white" stroke-opacity="0.1" stroke-width="2"/>
</svg>
